<?xml version="1.0" standalone="no"?>
<!DOCTYPE svg PUBLIC "-//W3C//DTD SVG 20010904//EN" "http://www.w3.org/TR/2001/REC-SVG-20010904/DTD/svg10.dtd">
<!-- Created using Krita: https://krita.org -->
<svg xmlns="http://www.w3.org/2000/svg" 
    xmlns:xlink="http://www.w3.org/1999/xlink"
    xmlns:krita="http://krita.org/namespaces/svg/krita"
    xmlns:sodipodi="http://sodipodi.sourceforge.net/DTD/sodipodi-0.dtd"
    width="184.32pt"
    height="184.32pt"
    viewBox="0 0 184.32 184.32">
<defs/>
<path id="shape0" transform="translate(0.0304854476062201, 38.1883098013018)" fill="#DB5C52" fill-rule="evenodd" d="M48.2785 3.33043L76.6159 51.788L68.8154 59.5199L44.2165 17.5517L20.9965 56.4076L20.1354 57.0935L19.2187 57.6671L18.2523 58.1333L17.2418 58.4969L16.1932 58.7625L15.1121 58.9349L14.0045 59.0188L12.8761 59.0191L11.7326 58.9405L10.5799 58.7877L9.42381 58.5654L8.27008 58.2785L7.12451 57.9317L5.50783 57.2575L4.08802 56.3886L2.87038 55.3635L1.8602 54.2204L1.06277 52.9977L0.483401 51.7338L0.127378 50.467L0 49.2357C0.00539258 48.6624 0.00924442 48.2529 0.0115555 48.0072C0.0231036 47.7558 0.0423504 47.3368 0.0692959 46.7502L0.173797 45.4885L0.325636 44.2454L0.525389 43.0445L0.773632 41.9094L1.07094 40.8635L1.41789 39.9305L1.81506 39.1338L3.0812 37.2035L4.43862 35.7662L5.95164 34.9972L7.27058 34.7973L8.65265 34.8159L9.95618 35.1126L11.0395 35.7467L11.8596 36.6543L12.4851 37.9159L12.9295 39.7967L13.0323 41.063L12.8601 42.1474L12.3782 43.3385L11.5519 44.925L11.2591 42.7072L11.1255 41.391L10.7882 40.1521L9.38916 38.6043L7.92447 38.3701L6.20834 39.7314L4.9334 41.6794L4.53373 42.7488L4.21437 43.8123L4.01629 44.905L3.98048 46.0617L4.14789 47.3173L4.55951 48.7067L5.33907 50.0303L6.51308 51.0201L7.96459 51.5766L9.57668 51.5997L11.2324 50.9898L12.0569 49.608L12.8714 48.2428L13.6759 46.8941L14.4703 45.5619L15.2547 44.2463L16.0291 42.9473L16.7935 41.6648L17.5478 40.3988L18.292 39.1494L19.0263 37.9166L19.7505 36.7003L20.4647 35.5005L21.1688 34.3173L21.8629 33.1506L22.547 32.0005L23.221 30.867L23.8851 29.7499L24.539 28.6495L25.183 27.5655L25.8169 26.4982L26.4408 25.4474L27.0546 24.4131L27.6585 23.3954L28.2522 22.3942L28.836 21.4095L29.4097 20.4415L29.9734 19.4899L30.5271 18.5549L31.0707 17.6365L31.6043 16.7346L32.1278 15.8493L32.6414 14.9805L33.1449 14.1283L33.6383 13.2926L34.1217 12.4734L34.5951 11.6708L35.0585 10.8848L35.5118 10.1153L35.9551 9.36232L36.3884 8.62591L36.8116 7.90606L37.2248 7.20275L37.628 6.51599L38.0211 5.84578L38.4042 5.19212L38.7773 4.55501L39.1403 3.93444L39.4933 3.33043L41.089 1.46543L42.4694 0.399686L43.671 0L44.7304 0.13317L45.6843 0.665998L46.5693 1.46528L47.4218 2.39783L48.2785 3.33043M88.7901 72.6061L98.8341 89.7816L115.403 61.2112L124.54 66.82L103.616 103.922L102.587 105.687L101.508 106.945L100.393 107.699L99.2582 107.949L98.1199 107.696L96.9938 106.94L95.8955 105.682L94.8411 103.922L81.0072 80.3205L88.7901 72.6061"/><path id="shape1" transform="translate(-0.135000009840184, 0.00588981015243917)" fill="#DB5C52" fill-rule="evenodd" d="M136.076 142.798L135.59 141.966L135.093 141.117L134.586 140.25L134.069 139.366L133.542 138.464L133.004 137.545L132.456 136.608L131.899 135.654L131.33 134.683L130.752 133.694L130.164 132.687L129.565 131.664L128.956 130.622L128.337 129.564L127.708 128.488L127.068 127.394L126.419 126.284L125.759 125.155L125.089 124.01L124.409 122.846L123.718 121.666L123.018 120.468L122.307 119.252L121.586 118.02L120.855 116.769L120.114 115.502L119.362 114.217L118.6 112.914L117.829 111.594L117.046 110.257L116.254 108.902L115.452 107.53L114.639 106.14L113.816 104.733L112.983 103.308L112.14 101.866L111.286 100.407L110.423 98.9302L109.549 97.436L108.665 95.9244L107.771 94.3953L106.867 92.8488L106.863 92.8429L114.663 85.112L140.138 128.577L140.966 127.192L141.781 125.828L142.584 124.485L143.375 123.161L144.154 121.858L144.92 120.576L145.674 119.314L146.416 118.072L147.146 116.851L147.863 115.651L148.569 114.47L149.262 113.311L149.942 112.171L150.611 111.052L151.268 109.954L151.912 108.876L152.544 107.818L153.164 106.781L153.771 105.764L154.367 104.768L154.95 103.792L155.521 102.837L156.08 101.902L156.626 100.987L157.16 100.093L157.682 99.2192L158.192 98.366L158.69 97.5332L159.176 96.7208L159.649 95.9289L160.11 95.1574L160.559 94.4063L160.995 93.6757L161.42 92.9655L161.832 92.2758L162.232 91.6064L162.62 90.9576L162.995 90.3291L163.358 89.7211L164.22 89.0353L165.136 88.4616L166.103 87.9954L167.113 87.6319L168.162 87.3663L169.243 87.1939L170.35 87.1099L171.479 87.1096L172.622 87.1883L173.775 87.3411L174.931 87.5633L176.085 87.8503L177.23 88.1971L178.847 88.8713L180.267 89.7402L181.485 90.7653L182.495 91.9084L183.292 93.1311L183.872 94.395L184.228 95.6617L184.355 96.8931L184.343 98.1216L184.286 99.3785L184.181 100.64L184.029 101.883L183.83 103.084L183.581 104.219L183.284 105.265L182.937 106.198L182.54 106.995L181.274 108.925L179.916 110.363L178.403 111.132L177.084 111.331L175.702 111.313L174.399 111.016L173.315 110.382L172.495 109.474L171.87 108.213L171.425 106.332L171.323 105.066L171.495 103.981L171.977 102.79L172.803 101.204L173.096 103.422L173.229 104.738L173.567 105.977L174.966 107.524L176.43 107.759L178.147 106.397L179.422 104.449L179.821 103.38L180.141 102.316L180.339 101.224L180.374 100.067L180.207 98.8115L179.795 97.4221L179.016 96.0985L177.842 95.1086L176.39 94.5522L174.778 94.5291L173.123 95.139L172.298 96.5208L171.484 97.886L170.679 99.2347L169.885 100.567L169.1 101.882L168.326 103.181L167.562 104.464L166.807 105.73L166.063 106.979L165.329 108.212L164.604 109.429L163.89 110.628L163.186 111.811L162.492 112.978L161.808 114.128L161.134 115.262L160.47 116.379L159.816 117.479L159.172 118.563L158.538 119.631L157.914 120.681L157.3 121.716L156.697 122.733L156.103 123.735L155.519 124.719L154.945 125.687L154.382 126.639L153.828 127.574L153.284 128.492L152.751 129.394L152.227 130.279L151.714 131.148L151.21 132.001L150.717 132.836L150.233 133.655L149.76 134.458L149.296 135.244L148.843 136.013L148.4 136.766L147.967 137.503L147.543 138.223L147.13 138.926L146.727 139.613L146.334 140.283L145.951 140.937L145.578 141.574L145.215 142.194L144.862 142.798L143.266 144.663L141.886 145.729L140.684 146.129L139.625 145.996L138.671 145.463L137.786 144.663L136.933 143.731L136.076 142.798M94.6889 72.0248L94.1824 71.1587L93.1353 69.3683L92.0781 67.5604L91.0107 65.7351L89.9331 63.8924L88.8453 62.0322L87.7473 60.1546L86.6391 58.2596L85.5208 56.3472L68.9521 84.9176L59.8156 79.3087L80.7397 42.2061L81.768 40.4421L82.8474 39.1835L83.9623 38.4295L85.0968 38.1795L86.2351 38.4328L87.3613 39.1888L88.4597 40.4467L89.5144 42.2061L102.471 64.3114L94.6889 72.0248"/><path id="shape2" fill="#DB5C52" fill-rule="evenodd" d="M25.3283 158.31L43.5737 152.91L158.286 38.1852L144.819 24.6444L30.0531 139.411L25.3283 158.31M28.08 155.543L33.885 154.125L29.4975 149.76L28.08 155.543M142.993 29.0946L144.796 27.3332L155.573 38.3659L153.77 40.1272L142.993 29.0946"/>
</svg>
